<?xml version="1.0" standalone="no"?>
<!DOCTYPE svg PUBLIC "-//W3C//DTD SVG 20010904//EN"
 "http://www.w3.org/TR/2001/REC-SVG-20010904/DTD/svg10.dtd">
<svg version="1.0" xmlns="http://www.w3.org/2000/svg"
 width="97.000000pt" height="97.000000pt" viewBox="0 0 97.000000 97.000000"
 preserveAspectRatio="xMidYMid meet">
<metadata>
Created by potrace 1.14, written by Peter Selinger 2001-2017
</metadata>
<g transform="translate(0.000000,97.000000) scale(0.100000,-0.100000)"
fill="#000000" stroke="none">
<path d="M405 871 c-49 -23 -96 -71 -128 -131 -15 -29 -31 -46 -45 -48 -26 -4
-28 5 -5 30 27 30 -9 23 -47 -8 -44 -37 -38 -68 13 -72 24 -2 37 -8 34 -15 -3
-7 -11 -11 -18 -9 -8 2 -11 0 -7 -4 4 -4 -6 -24 -22 -44 -33 -41 -36 -60 -18
-90 10 -15 9 -22 -6 -39 -24 -26 -13 -61 20 -61 28 0 31 -12 8 -30 -30 -26
-37 -50 -18 -71 9 -10 27 -19 38 -19 12 0 28 -4 36 -10 11 -7 9 -11 -14 -19
-46 -18 -31 -45 27 -49 27 -2 55 2 63 9 11 9 14 8 14 -5 0 -10 -16 -23 -40
-32 -54 -22 -55 -54 -2 -80 31 -16 60 -19 177 -19 120 0 146 3 179 20 22 11
41 25 43 31 11 34 -72 66 -171 65 -39 0 -55 3 -46 9 8 5 17 7 21 4 4 -2 6 3 5
11 0 7 1 14 4 14 3 -1 30 9 60 22 30 12 82 25 115 30 73 9 99 34 84 79 -7 20
-7 35 0 49 16 28 14 55 -7 104 -47 107 -52 144 -19 156 40 16 62 50 62 98 0
59 -28 83 -96 83 -26 0 -50 -4 -53 -9 -3 -5 6 -8 21 -8 46 0 85 -73 43 -81 -8
-1 -47 29 -87 67 -94 91 -142 107 -218 72z m-192 -318 c-5 -33 -16 -42 -28
-23 -5 8 26 63 31 57 1 -1 -1 -17 -3 -34z"/>
</g>
</svg>
